<mxfile host="Electron" modified="2023-05-11T07:41:26.236Z" agent="Mozilla/5.0 (Macintosh; Intel Mac OS X 10_15_7) AppleWebKit/537.36 (KHTML, like Gecko) draw.io/21.2.8 Chrome/112.0.5615.165 Electron/24.2.0 Safari/537.36" etag="l1EvNx6mC2q13Y9bQtbW" version="21.2.8" type="device">
  <diagram id="ognJbHDZuQq3m8zOa5Wo" name="Page-1">
    <mxGraphModel dx="1137" dy="1013" grid="1" gridSize="10" guides="1" tooltips="1" connect="1" arrows="1" fold="1" page="1" pageScale="1" pageWidth="1169" pageHeight="827" math="0" shadow="0">
      <root>
        <mxCell id="0" />
        <mxCell id="1" parent="0" />
        <mxCell id="DXioXR5Db2a8W-PApKib-6" style="edgeStyle=orthogonalEdgeStyle;rounded=0;orthogonalLoop=1;jettySize=auto;html=1;" parent="1" source="DXioXR5Db2a8W-PApKib-1" target="DXioXR5Db2a8W-PApKib-3" edge="1">
          <mxGeometry relative="1" as="geometry" />
        </mxCell>
        <mxCell id="DXioXR5Db2a8W-PApKib-1" value="Organisaties" style="ellipse;whiteSpace=wrap;html=1;" parent="1" vertex="1">
          <mxGeometry x="145" y="40" width="120" height="80" as="geometry" />
        </mxCell>
        <mxCell id="DXioXR5Db2a8W-PApKib-7" style="edgeStyle=orthogonalEdgeStyle;rounded=0;orthogonalLoop=1;jettySize=auto;html=1;" parent="1" source="DXioXR5Db2a8W-PApKib-3" target="DXioXR5Db2a8W-PApKib-4" edge="1">
          <mxGeometry relative="1" as="geometry" />
        </mxCell>
        <mxCell id="DXioXR5Db2a8W-PApKib-3" value="Profiel" style="ellipse;whiteSpace=wrap;html=1;" parent="1" vertex="1">
          <mxGeometry x="205" y="160" width="120" height="80" as="geometry" />
        </mxCell>
        <mxCell id="DXioXR5Db2a8W-PApKib-8" style="edgeStyle=orthogonalEdgeStyle;rounded=0;orthogonalLoop=1;jettySize=auto;html=1;" parent="1" source="DXioXR5Db2a8W-PApKib-4" target="DXioXR5Db2a8W-PApKib-5" edge="1">
          <mxGeometry relative="1" as="geometry" />
        </mxCell>
        <mxCell id="DXioXR5Db2a8W-PApKib-4" value="modules&lt;br&gt;versie x.y.z" style="ellipse;whiteSpace=wrap;html=1;fillColor=#dae8fc;strokeColor=#6c8ebf;" parent="1" vertex="1">
          <mxGeometry x="265" y="280" width="120" height="80" as="geometry" />
        </mxCell>
        <mxCell id="DXioXR5Db2a8W-PApKib-16" style="edgeStyle=orthogonalEdgeStyle;rounded=0;orthogonalLoop=1;jettySize=auto;html=1;entryX=0;entryY=0.5;entryDx=0;entryDy=0;exitX=0.5;exitY=1;exitDx=0;exitDy=0;" parent="1" source="DXioXR5Db2a8W-PApKib-5" target="DXioXR5Db2a8W-PApKib-14" edge="1">
          <mxGeometry relative="1" as="geometry" />
        </mxCell>
        <mxCell id="DXioXR5Db2a8W-PApKib-17" style="edgeStyle=orthogonalEdgeStyle;rounded=0;orthogonalLoop=1;jettySize=auto;html=1;exitX=0.5;exitY=1;exitDx=0;exitDy=0;entryX=0;entryY=0.5;entryDx=0;entryDy=0;" parent="1" source="DXioXR5Db2a8W-PApKib-5" target="DXioXR5Db2a8W-PApKib-15" edge="1">
          <mxGeometry relative="1" as="geometry" />
        </mxCell>
        <mxCell id="DXioXR5Db2a8W-PApKib-5" value="Rules" style="ellipse;whiteSpace=wrap;html=1;" parent="1" vertex="1">
          <mxGeometry x="325" y="400" width="120" height="80" as="geometry" />
        </mxCell>
        <mxCell id="DXioXR5Db2a8W-PApKib-11" style="edgeStyle=orthogonalEdgeStyle;rounded=0;orthogonalLoop=1;jettySize=auto;html=1;entryX=0.5;entryY=0;entryDx=0;entryDy=0;" parent="1" source="DXioXR5Db2a8W-PApKib-9" target="DXioXR5Db2a8W-PApKib-10" edge="1">
          <mxGeometry relative="1" as="geometry" />
        </mxCell>
        <mxCell id="DXioXR5Db2a8W-PApKib-9" value="API" style="ellipse;whiteSpace=wrap;html=1;" parent="1" vertex="1">
          <mxGeometry x="580" y="40" width="120" height="80" as="geometry" />
        </mxCell>
        <mxCell id="DXioXR5Db2a8W-PApKib-12" style="edgeStyle=orthogonalEdgeStyle;rounded=0;orthogonalLoop=1;jettySize=auto;html=1;entryX=1;entryY=0;entryDx=0;entryDy=0;endArrow=none;endFill=0;dashed=1;exitX=0;exitY=1;exitDx=0;exitDy=0;" parent="1" source="DXioXR5Db2a8W-PApKib-10" target="DXioXR5Db2a8W-PApKib-4" edge="1">
          <mxGeometry relative="1" as="geometry">
            <Array as="points">
              <mxPoint x="460" y="228" />
              <mxPoint x="460" y="292" />
            </Array>
          </mxGeometry>
        </mxCell>
        <mxCell id="DXioXR5Db2a8W-PApKib-13" style="edgeStyle=orthogonalEdgeStyle;rounded=0;orthogonalLoop=1;jettySize=auto;html=1;entryX=1;entryY=1;entryDx=0;entryDy=0;endArrow=none;endFill=0;dashed=1;exitX=0;exitY=0.5;exitDx=0;exitDy=0;" parent="1" source="DXioXR5Db2a8W-PApKib-9" target="DXioXR5Db2a8W-PApKib-1" edge="1">
          <mxGeometry relative="1" as="geometry">
            <Array as="points">
              <mxPoint x="460" y="80" />
              <mxPoint x="460" y="108" />
            </Array>
          </mxGeometry>
        </mxCell>
        <mxCell id="DXioXR5Db2a8W-PApKib-19" style="edgeStyle=orthogonalEdgeStyle;rounded=0;orthogonalLoop=1;jettySize=auto;html=1;entryX=0.5;entryY=0;entryDx=0;entryDy=0;" parent="1" source="DXioXR5Db2a8W-PApKib-10" target="DXioXR5Db2a8W-PApKib-18" edge="1">
          <mxGeometry relative="1" as="geometry" />
        </mxCell>
        <mxCell id="DXioXR5Db2a8W-PApKib-10" value="OAS&lt;br&gt;versie x.y.z" style="ellipse;whiteSpace=wrap;html=1;fillColor=#dae8fc;strokeColor=#6c8ebf;" parent="1" vertex="1">
          <mxGeometry x="520" y="160" width="120" height="80" as="geometry" />
        </mxCell>
        <mxCell id="DXioXR5Db2a8W-PApKib-20" style="edgeStyle=orthogonalEdgeStyle;rounded=0;orthogonalLoop=1;jettySize=auto;html=1;entryX=0;entryY=0.75;entryDx=0;entryDy=0;endArrow=none;endFill=0;dashed=1;exitX=1;exitY=0;exitDx=0;exitDy=0;" parent="1" source="DXioXR5Db2a8W-PApKib-14" target="DXioXR5Db2a8W-PApKib-18" edge="1">
          <mxGeometry relative="1" as="geometry">
            <Array as="points">
              <mxPoint x="620" y="492" />
              <mxPoint x="620" y="405" />
            </Array>
          </mxGeometry>
        </mxCell>
        <mxCell id="DXioXR5Db2a8W-PApKib-14" value="Technische rules" style="ellipse;whiteSpace=wrap;html=1;" parent="1" vertex="1">
          <mxGeometry x="465" y="480" width="120" height="60" as="geometry" />
        </mxCell>
        <mxCell id="DXioXR5Db2a8W-PApKib-15" value="Functionele rules" style="ellipse;whiteSpace=wrap;html=1;" parent="1" vertex="1">
          <mxGeometry x="465" y="580" width="120" height="60" as="geometry" />
        </mxCell>
        <mxCell id="DXioXR5Db2a8W-PApKib-22" style="edgeStyle=orthogonalEdgeStyle;rounded=0;orthogonalLoop=1;jettySize=auto;html=1;exitX=1;exitY=0.5;exitDx=0;exitDy=0;" parent="1" source="DXioXR5Db2a8W-PApKib-18" target="DXioXR5Db2a8W-PApKib-21" edge="1">
          <mxGeometry relative="1" as="geometry" />
        </mxCell>
        <mxCell id="DXioXR5Db2a8W-PApKib-18" value="Testen" style="rounded=1;whiteSpace=wrap;html=1;" parent="1" vertex="1">
          <mxGeometry x="720" y="360" width="120" height="60" as="geometry" />
        </mxCell>
        <mxCell id="DXioXR5Db2a8W-PApKib-21" value="Compliancy" style="shape=document;whiteSpace=wrap;html=1;boundedLbl=1;" parent="1" vertex="1">
          <mxGeometry x="820" y="50" width="120" height="80" as="geometry" />
        </mxCell>
        <mxCell id="DXioXR5Db2a8W-PApKib-24" style="edgeStyle=orthogonalEdgeStyle;rounded=0;orthogonalLoop=1;jettySize=auto;html=1;entryX=0.5;entryY=1;entryDx=0;entryDy=0;exitX=0;exitY=0.5;exitDx=0;exitDy=0;" parent="1" source="DXioXR5Db2a8W-PApKib-30" target="DXioXR5Db2a8W-PApKib-18" edge="1">
          <mxGeometry relative="1" as="geometry" />
        </mxCell>
        <mxCell id="DXioXR5Db2a8W-PApKib-25" value="" style="endArrow=none;dashed=1;html=1;rounded=0;entryX=0;entryY=0.75;entryDx=0;entryDy=0;exitX=1;exitY=1;exitDx=0;exitDy=0;edgeStyle=orthogonalEdgeStyle;" parent="1" source="DXioXR5Db2a8W-PApKib-14" target="DXioXR5Db2a8W-PApKib-30" edge="1">
          <mxGeometry width="50" height="50" relative="1" as="geometry">
            <mxPoint x="550" y="370" as="sourcePoint" />
            <mxPoint x="600" y="320" as="targetPoint" />
            <Array as="points">
              <mxPoint x="620" y="548" />
              <mxPoint x="620" y="540" />
            </Array>
          </mxGeometry>
        </mxCell>
        <mxCell id="DXioXR5Db2a8W-PApKib-26" value="" style="endArrow=none;dashed=1;html=1;rounded=0;entryX=0;entryY=0.25;entryDx=0;entryDy=0;exitX=1;exitY=1;exitDx=0;exitDy=0;edgeStyle=orthogonalEdgeStyle;" parent="1" source="DXioXR5Db2a8W-PApKib-4" target="DXioXR5Db2a8W-PApKib-18" edge="1">
          <mxGeometry width="50" height="50" relative="1" as="geometry">
            <mxPoint x="652.4264068711927" y="528.2842712474617" as="sourcePoint" />
            <mxPoint x="917.5735931288073" y="528.2842712474617" as="targetPoint" />
            <Array as="points">
              <mxPoint x="620" y="348" />
              <mxPoint x="620" y="375" />
            </Array>
          </mxGeometry>
        </mxCell>
        <mxCell id="DXioXR5Db2a8W-PApKib-27" value="Developer.overheid.nl" style="ellipse;whiteSpace=wrap;html=1;" parent="1" vertex="1">
          <mxGeometry x="1000" y="40" width="130" height="80" as="geometry" />
        </mxCell>
        <mxCell id="DXioXR5Db2a8W-PApKib-29" style="edgeStyle=orthogonalEdgeStyle;rounded=0;orthogonalLoop=1;jettySize=auto;html=1;exitX=0.5;exitY=1;exitDx=0;exitDy=0;entryX=1;entryY=0.5;entryDx=0;entryDy=0;" parent="1" source="DXioXR5Db2a8W-PApKib-27" target="DXioXR5Db2a8W-PApKib-30" edge="1">
          <mxGeometry relative="1" as="geometry">
            <mxPoint x="850" y="400" as="sourcePoint" />
            <mxPoint x="950" y="130" as="targetPoint" />
          </mxGeometry>
        </mxCell>
        <mxCell id="DXioXR5Db2a8W-PApKib-30" value="test script&lt;br&gt;versie x.y.z" style="shape=document;whiteSpace=wrap;html=1;boundedLbl=1;fillColor=#dae8fc;strokeColor=#6c8ebf;" parent="1" vertex="1">
          <mxGeometry x="840" y="480" width="120" height="80" as="geometry" />
        </mxCell>
        <mxCell id="DXioXR5Db2a8W-PApKib-32" style="edgeStyle=orthogonalEdgeStyle;rounded=0;orthogonalLoop=1;jettySize=auto;html=1;dashed=1;endArrow=none;endFill=0;" parent="1" source="DXioXR5Db2a8W-PApKib-31" target="DXioXR5Db2a8W-PApKib-4" edge="1">
          <mxGeometry relative="1" as="geometry" />
        </mxCell>
        <mxCell id="DXioXR5Db2a8W-PApKib-31" value="NL API Strategie" style="rounded=1;whiteSpace=wrap;html=1;" parent="1" vertex="1">
          <mxGeometry x="125" y="290" width="120" height="60" as="geometry" />
        </mxCell>
      </root>
    </mxGraphModel>
  </diagram>
</mxfile>
